<svg width="13" height="16" viewBox="0 0 13 16" fill="none" xmlns="http://www.w3.org/2000/svg">
<path fill-rule="evenodd" clip-rule="evenodd" d="M0.862061 1V10.5455H2.79293V7.49094H4.23514L6.52083 11.1454L3.46153 16H5.6557L7.63672 12.7273L9.6052 16H11.8621L8.80276 11.1182L11.7367 6.45451H9.54251L7.75258 9.44035L6.3036 7.13639C7.55741 6.6273 8.18432 5.64093 8.18432 4.17729C8.18432 3.25001 7.93356 2.51364 7.43203 1.96819C6.83856 1.32273 5.98597 1 4.87426 1H0.862061ZM4.74887 5.63638H2.79293V2.89546H4.71126C5.18771 2.89546 5.55967 3.01364 5.82715 3.25001C6.09463 3.47728 6.22837 3.81365 6.22837 4.2591C6.22837 4.67729 6.09881 5.01365 5.83969 5.2682C5.58057 5.51366 5.21696 5.63638 4.74887 5.63638Z" fill="#6B6B6B"/>
</svg>
